<svg width="2481" height="2073" xmlns="http://www.w3.org/2000/svg"><defs><filter id="a" width="200%" height="200%" y="-50%" x="-50%"><feGaussianBlur stdDeviation="7.7"/></filter></defs><path clip-rule="evenodd" fill="#007fff" fill-rule="evenodd" d="M730.94 1839.63c-38.766-190.3-107.116-348.67-189.903-495.44-61.407-108.87-132.544-209.36-198.364-314.94-21.972-35.243-40.934-72.476-62.047-109.053-42.216-73.137-76.444-157.935-74.269-267.932 2.125-107.473 33.208-193.684 78.03-264.172 73.719-115.935 197.201-210.989 362.884-235.969 135.466-20.424 262.475 14.082 352.543 66.748 73.596 43.038 130.596 100.527 173.916 168.28 45.22 70.716 76.36 154.26 78.97 263.232 1.34 55.83-7.8 107.532-20.68 150.418-13.03 43.409-33.99 79.695-52.64 118.454-36.41 75.659-82.05 144.984-127.86 214.344-136.437 206.61-264.496 417.31-320.58 706.03z"/><circle clip-rule="evenodd" fill-rule="evenodd" cx="729.546" cy="651.047" r="183.333"/><path opacity=".25" clip-rule="evenodd" fill-rule="evenodd" d="M731.379 1838.955c131.604-120.87 211.314-235.98 269.141-350.49 42.89-84.95 70.54-169.17 106.95-254.06 12.16-28.34 28.51-56.57 42.52-85.3 28.02-57.45 72.66-118.14 169.03-178.1 94.16-58.59 193.95-93.756 291.58-114.697 160.56-34.442 344.28-37.299 502.59 15.593 129.45 43.244 204.68 113.464 233.78 178.864 23.78 53.44 21.43 108.18-1.04 163.1-23.46 57.32-69.57 116.07-161.11 177.39-46.9 31.42-98.9 56.34-146.41 74.87-48.09 18.76-96.6 30.39-145.33 44.32-95.12 27.19-192.42 47.15-289.89 67.08-290.32 59.34-577.25 124.32-871.811 261.43z" filter="url(#a)"/></svg>